<svg xmlns="http://www.w3.org/2000/svg" viewBox="0 0 200 200"><path d="M 96.30 24.00 L 96.32 24.00 L 96.36 24.01 L 96.43 24.02 L 96.51 24.04 L 96.62 24.06 L 96.75 24.09 L 96.90 24.11 L 97.07 24.15 L 97.27 24.18 L 97.48 24.23 L 97.72 24.27 L 97.98 24.32 L 98.26 24.37 L 98.56 24.43 L 98.88 24.49 L 99.23 24.56 L 99.59 24.63 L 99.98 24.70 L 100.39 24.78 L 100.82 24.86 L 101.27 24.95 L 101.75 25.04 L 102.24 25.13 L 102.76 25.23 L 103.30 25.33 L 103.86 25.44 L 104.44 25.55 L 105.04 25.66 L 105.66 25.78 L 106.31 25.91 L 106.98 26.03 L 107.67 26.17 L 108.37 26.31 L 109.08 26.48 L 109.80 26.66 L 110.54 26.86 L 111.28 27.08 L 112.04 27.31 L 112.81 27.56 L 113.59 27.83 L 114.38 28.12 L 115.19 28.42 L 116.00 28.74 L 116.83 29.08 L 117.67 29.43 L 118.52 29.80 L 119.38 30.19 L 120.26 30.60 L 121.14 31.02 L 122.04 31.46 L 122.95 31.92 L 123.86 32.40 L 124.80 32.89 L 125.74 33.40 L 126.69 33.92 L 127.66 34.47 L 128.64 35.03 L 129.62 35.60 L 130.62 36.20 L 131.64 36.81 L 132.66 37.44 L 133.69 38.09 L 134.74 38.75 L 135.80 39.43 L 136.84 40.11 L 137.86 40.80 L 138.87 41.50 L 139.86 42.20 L 140.83 42.90 L 141.79 43.61 L 142.72 44.32 L 143.64 45.03 L 144.55 45.75 L 145.43 46.48 L 146.30 47.20 L 147.15 47.94 L 147.99 48.67 L 148.81 49.42 L 149.61 50.16 L 150.39 50.91 L 151.16 51.67 L 151.90 52.43 L 152.64 53.19 L 153.35 53.96 L 154.05 54.73 L 154.73 55.51 L 155.39 56.29 L 156.04 57.07 L 156.67 57.86 L 157.28 58.66 L 157.87 59.45 L 158.45 60.26 L 159.01 61.06 L 159.55 61.88 L 160.08 62.69 L 160.59 63.51 L 161.08 64.34 L 161.57 65.17 L 162.04 66.02 L 162.51 66.87 L 162.96 67.72 L 163.40 68.59 L 163.83 69.46 L 164.25 70.34 L 164.65 71.23 L 165.05 72.12 L 165.43 73.02 L 165.81 73.93 L 166.17 74.85 L 166.52 75.77 L 166.86 76.70 L 167.19 77.64 L 167.50 78.59 L 167.81 79.54 L 168.10 80.51 L 168.39 81.47 L 168.66 82.45 L 168.92 83.43 L 169.17 84.42 L 169.41 85.42 L 169.63 86.43 L 169.85 87.44 L 170.05 88.46 L 170.24 89.49 L 170.43 90.53 L 170.60 91.57 L 170.75 92.62 L 170.90 93.68 L 171.04 94.74 L 171.16 95.80 L 171.26 96.87 L 171.36 97.93 L 171.44 99.00 L 171.51 100.07 L 171.56 101.15 L 171.60 102.22 L 171.63 103.30 L 171.65 104.38 L 171.65 105.47 L 171.63 106.55 L 171.61 107.64 L 171.57 108.73 L 171.52 109.82 L 171.45 110.92 L 171.37 112.02 L 171.28 113.11 L 171.17 114.22 L 171.06 115.32 L 170.92 116.43 L 170.78 117.54 L 170.62 118.65 L 170.45 119.76 L 170.26 120.88 L 170.06 121.99 L 169.85 123.11 L 169.62 124.24 L 169.39 125.36 L 169.13 126.49 L 168.87 127.62 L 168.59 128.75 L 168.30 129.87 L 168.01 130.97 L 167.71 132.05 L 167.40 133.12 L 167.09 134.17 L 166.77 135.21 L 166.44 136.23 L 166.10 137.24 L 165.76 138.23 L 165.41 139.21 L 165.05 140.17 L 164.68 141.11 L 164.31 142.04 L 163.93 142.95 L 163.55 143.85 L 163.15 144.73 L 162.75 145.60 L 162.34 146.45 L 161.93 147.28 L 161.51 148.10 L 161.08 148.90 L 160.64 149.69 L 160.20 150.46 L 159.74 151.22 L 159.29 151.96 L 158.82 152.69 L 158.35 153.40 L 157.87 154.09 L 157.38 154.77 L 156.89 155.43 L 156.39 156.08 L 155.88 156.71 L 155.35 157.33 L 154.80 157.95 L 154.24 158.55 L 153.65 159.15 L 153.04 159.73 L 152.42 160.31 L 151.77 160.88 L 151.11 161.44 L 150.43 161.99 L 149.72 162.53 L 149.00 163.06 L 148.26 163.59 L 147.50 164.10 L 146.71 164.61 L 145.91 165.11 L 145.09 165.59 L 144.25 166.07 L 143.40 166.54 L 142.52 167.00 L 141.62 167.46 L 140.70 167.90 L 139.76 168.33 L 138.81 168.76 L 137.83 169.17 L 136.84 169.58 L 135.82 169.98 L 134.79 170.37 L 133.73 170.75 L 132.66 171.12 L 131.57 171.48 L 130.46 171.84 L 129.32 172.18 L 128.18 172.51 L 127.03 172.82 L 125.87 173.12 L 124.70 173.41 L 123.52 173.68 L 122.32 173.93 L 121.12 174.18 L 119.91 174.40 L 118.69 174.61 L 117.46 174.81 L 116.22 174.99 L 114.96 175.15 L 113.70 175.31 L 112.43 175.44 L 111.15 175.56 L 109.86 175.67 L 108.56 175.76 L 107.24 175.84 L 105.92 175.90 L 104.59 175.95 L 103.25 175.98 L 101.90 176.00 L 100.54 176.00 L 99.16 175.99 L 97.78 175.96 L 96.39 175.92 L 94.99 175.86 L 93.58 175.79 L 92.16 175.70 L 90.72 175.60 L 89.28 175.49 L 87.83 175.35 L 86.41 175.21 L 85.01 175.05 L 83.65 174.88 L 82.31 174.70 L 81.00 174.50 L 79.71 174.29 L 78.46 174.06 L 77.23 173.82 L 76.04 173.57 L 74.87 173.31 L 73.73 173.03 L 72.61 172.74 L 71.53 172.44 L 70.47 172.12 L 69.44 171.79 L 68.44 171.44 L 67.47 171.08 L 66.52 170.71 L 65.61 170.33 L 64.72 169.93 L 63.86 169.52 L 63.03 169.10 L 62.23 168.66 L 61.45 168.21 L 60.71 167.74 L 59.99 167.27 L 59.30 166.77 L 58.63 166.27 L 58.00 165.75 L 57.39 165.22 L 56.82 164.68 L 56.27 164.12 L 55.71 163.52 L 55.14 162.89 L 54.57 162.21 L 53.98 161.50 L 53.39 160.75 L 52.79 159.96 L 52.18 159.13 L 51.56 158.26 L 50.93 157.36 L 50.29 156.41 L 49.65 155.43 L 48.99 154.41 L 48.33 153.35 L 47.66 152.25 L 46.98 151.11 L 46.29 149.93 L 45.59 148.72 L 44.89 147.46 L 44.17 146.17 L 43.45 144.84 L 42.72 143.47 L 41.97 142.06 L 41.22 140.61 L 40.47 139.13 L 39.70 137.60 L 38.92 136.04 L 38.14 134.43 L 37.34 132.79 L 36.54 131.11 L 35.73 129.40 L 34.91 127.64 L 34.08 125.84 L 33.31 124.04 L 32.59 122.25 L 31.93 120.45 L 31.33 118.65 L 30.78 116.84 L 30.29 115.04 L 29.85 113.23 L 29.47 111.43 L 29.14 109.62 L 28.87 107.81 L 28.66 106.00 L 28.50 104.19 L 28.40 102.38 L 28.35 100.56 L 28.36 98.75 L 28.43 96.93 L 28.55 95.11 L 28.73 93.30 L 28.96 91.47 L 29.25 89.65 L 29.60 87.83 L 30.00 86.01 L 30.45 84.18 L 30.97 82.35 L 31.53 80.53 L 32.16 78.70 L 32.84 76.87 L 33.57 75.03 L 34.37 73.20 L 35.21 71.37 L 36.12 69.53 L 37.08 67.69 L 38.03 65.90 L 38.97 64.16 L 39.90 62.46 L 40.83 60.81 L 41.74 59.20 L 42.65 57.65 L 43.55 56.13 L 44.44 54.67 L 45.32 53.25 L 46.19 51.88 L 47.06 50.55 L 47.91 49.27 L 48.76 48.03 L 49.59 46.85 L 50.42 45.71 L 51.24 44.61 L 52.06 43.56 L 52.86 42.56 L 53.65 41.60 L 54.44 40.70 L 55.21 39.83 L 55.98 39.02 L 56.74 38.25 L 57.49 37.52 L 58.23 36.84 L 58.97 36.21 L 59.69 35.63 L 60.41 35.09 L 61.11 34.60 L 61.81 34.15 L 62.50 33.75 L 63.18 33.40 L 63.86 33.06 L 64.53 32.73 L 65.20 32.42 L 65.86 32.12 L 66.52 31.83 L 67.18 31.55 L 67.83 31.29 L 68.48 31.03 L 69.12 30.79 L 69.76 30.57 L 70.40 30.35 L 71.03 30.15 L 71.66 29.96 L 72.28 29.78 L 72.90 29.62 L 73.51 29.47 L 74.12 29.33 L 74.73 29.20 L 75.33 29.09 L 75.93 28.99 L 76.53 28.90 L 77.12 28.82 L 77.70 28.76 L 78.29 28.71 L 78.86 28.67 L 79.44 28.64 L 80.01 28.63 L 80.57 28.63 L 81.14 28.64 L 81.69 28.66 L 82.25 28.70 L 82.80 28.75 L 83.33 28.93 L 83.86 29.24 L 84.36 29.68 L 84.86 30.24 L 85.34 30.94 L 85.81 31.77 L 86.27 32.73 L 86.71 33.82 L 87.14 35.04 L 87.56 36.39 L 87.96 37.87 L 88.35 39.47 L 88.73 41.21 L 89.09 43.08 L 89.44 45.08 L 89.78 47.21 L 90.10 49.46 L 90.41 51.85 L 90.70 54.37 L 90.99 57.02 L 91.26 59.80 L 91.51 62.70 L 91.76 65.74 L 91.99 68.91 L 92.20 72.21 L 92.40 75.63 L 92.59 79.19 L 92.77 82.88 L 92.93 86.70 L 93.08 90.64 L 93.22 94.72 L 93.34 98.93 L 93.46 103.00 L 93.58 106.95 L 93.69 110.76 L 93.80 114.44 L 93.90 117.99 L 94.00 121.41 L 94.10 124.69 L 94.19 127.85 L 94.28 130.87 L 94.36 133.77 L 94.44 136.53 L 94.52 139.16 L 94.59 141.65 L 94.66 144.02 L 94.73 146.26 L 94.79 148.36 L 94.85 150.33 L 94.90 152.17 L 94.95 153.88 L 95.00 155.46 L 95.04 156.90 L 95.08 158.22 L 95.11 159.40 L 95.14 160.45 L 95.17 161.37 L 95.19 162.16 L 95.21 162.82 L 95.23 163.35 L 95.24 163.74 L 95.25 164.00 L 95.25 164.14" fill="none" stroke="black" stroke-width="3" stroke-linecap="round" stroke-linejoin="round"/></svg>