<svg xmlns="http://www.w3.org/2000/svg" viewBox="0 0 200 200"><path d="M 24.0 156.2 L 24.1 156.0 L 24.2 155.7 L 24.4 155.3 L 24.7 154.7 L 25.1 153.9 L 25.6 153.0 L 26.1 152.0 L 26.7 150.7 L 27.3 149.4 L 28.1 147.9 L 28.9 146.2 L 29.8 144.4 L 30.7 142.4 L 31.8 140.3 L 32.9 138.0 L 34.0 135.6 L 35.3 133.0 L 36.6 130.3 L 38.0 127.4 L 39.5 124.4 L 41.1 121.2 L 42.7 117.9 L 44.4 114.4 L 46.1 110.7 L 48.0 107.0 L 49.9 103.0 L 51.9 98.9 L 54.0 94.7 L 56.1 90.3 L 58.3 85.7 L 60.6 81.0 L 63.0 76.2 L 65.4 71.6 L 67.7 67.4 L 70.1 63.5 L 72.5 59.8 L 74.9 56.5 L 77.3 53.5 L 79.8 50.7 L 82.2 48.3 L 84.6 46.2 L 87.1 44.4 L 89.6 42.9 L 92.0 41.6 L 94.5 40.7 L 97.0 40.1 L 99.5 39.8 L 102.0 39.8 L 104.5 40.1 L 107.1 40.7 L 109.6 41.6 L 112.1 42.9 L 114.7 44.4 L 117.2 46.2 L 119.8 48.3 L 122.4 50.7 L 125.0 53.5 L 127.6 56.5 L 130.2 59.8 L 132.8 63.5 L 135.4 67.4 L 138.1 71.6 L 140.7 76.2 L 143.4 81.0 L 145.9 85.7 L 148.4 90.2 L 150.7 94.6 L 152.9 98.7 L 155.1 102.7 L 157.1 106.6 L 159.0 110.2 L 160.9 113.7 L 162.6 117.0 L 164.2 120.2 L 165.7 123.2 L 167.1 126.0 L 168.4 128.6 L 169.6 131.1 L 170.7 133.4 L 171.7 135.5 L 172.6 137.5 L 173.4 139.3 L 174.1 140.9 L 174.7 142.4 L 175.1 143.7 L 175.5 144.8 L 175.8 145.7 L 175.9 146.5 L 176.0 147.1 L 176.0 147.6 L 175.8 147.8 L 175.6 147.9 L 175.2 147.9 L 174.8 147.6 L 174.2 147.2 L 173.5 146.6 L 172.8 146.1 L 172.1 145.5 L 171.4 145.0 L 170.6 144.4 L 169.8 143.9 L 169.0 143.4 L 168.2 142.9 L 167.3 142.5 L 166.4 142.0 L 165.5 141.5 L 164.5 141.1 L 163.6 140.7 L 162.6 140.3 L 161.5 139.9 L 160.5 139.5 L 159.4 139.1 L 158.3 138.7 L 157.2 138.4 L 156.0 138.1 L 154.8 137.7 L 153.6 137.4 L 152.4 137.1 L 151.1 136.9 L 149.8 136.6 L 148.5 136.3 L 147.2 136.1 L 145.8 135.9 L 144.4 135.6 L 143.0 135.4 L 141.6 135.2 L 140.1 135.1 L 138.6 134.9 L 137.1 134.8 L 135.6 134.7 L 134.0 134.6 L 132.4 134.6 L 130.8 134.6 L 129.2 134.6 L 127.6 134.6 L 125.9 134.7 L 124.2 134.9 L 122.5 135.0 L 120.8 135.2 L 119.0 135.4 L 117.2 135.7 L 115.4 136.0 L 113.6 136.3 L 111.8 136.6 L 109.9 137.0 L 108.0 137.4 L 106.1 137.9 L 104.2 138.4 L 102.2 138.9 L 100.2 139.4 L 98.2 140.0 L 96.2 140.6 L 94.2 141.3 L 92.1 142.0 L 90.0 142.7 L 87.9 143.4 L 85.8 144.2 L 83.6 145.0 L 81.5 145.8 L 79.3 146.7 L 77.1 147.5 L 75.1 148.3 L 73.1 149.1 L 71.2 149.9 L 69.3 150.6 L 67.5 151.3 L 65.8 152.0 L 64.2 152.7 L 62.6 153.3 L 61.1 153.9 L 59.6 154.5 L 58.3 155.0 L 57.0 155.5 L 55.7 156.0 L 54.6 156.5 L 53.5 156.9 L 52.4 157.3 L 51.5 157.7 L 50.6 158.1 L 49.8 158.4 L 49.0 158.7 L 48.3 159.0 L 47.7 159.2 L 47.1 159.4 L 46.7 159.6 L 46.2 159.8 L 45.9 159.9 L 45.6 160.0 L 45.4 160.1 L 45.3 160.2 L 45.2 160.2" fill="none" stroke="black" stroke-width="3" stroke-linecap="round" stroke-linejoin="round"/></svg>