<svg xmlns="http://www.w3.org/2000/svg" viewBox="0 0 200 200"><path d="M 31.3 133.8 L 31.3 133.7 L 31.3 133.7 L 31.3 133.6 L 31.2 133.5 L 31.2 133.4 L 31.1 133.2 L 31.0 133.0 L 30.9 132.8 L 30.8 132.6 L 30.7 132.3 L 30.6 132.0 L 30.5 131.7 L 30.4 131.4 L 30.2 131.0 L 30.1 130.6 L 29.9 130.2 L 29.7 129.7 L 29.5 129.3 L 29.3 128.7 L 29.1 128.2 L 28.9 127.7 L 28.7 127.1 L 28.4 126.5 L 28.2 125.9 L 27.9 125.2 L 27.6 124.5 L 27.3 123.8 L 27.0 123.1 L 26.7 122.3 L 26.4 121.5 L 26.1 120.7 L 25.8 119.8 L 25.4 119.0 L 25.2 118.1 L 24.9 117.3 L 24.7 116.4 L 24.5 115.5 L 24.4 114.6 L 24.2 113.7 L 24.1 112.8 L 24.1 111.9 L 24.0 111.0 L 24.0 110.1 L 24.0 109.2 L 24.1 108.2 L 24.1 107.3 L 24.3 106.3 L 24.4 105.4 L 24.6 104.4 L 24.8 103.4 L 25.0 102.4 L 25.2 101.5 L 25.5 100.5 L 25.8 99.5 L 26.2 98.5 L 26.6 97.4 L 27.0 96.4 L 27.4 95.4 L 27.9 94.3 L 28.3 93.3 L 28.9 92.2 L 29.4 91.2 L 30.0 90.1 L 30.6 89.0 L 31.2 88.0 L 31.8 86.9 L 32.5 85.9 L 33.1 84.9 L 33.7 84.0 L 34.4 83.0 L 35.0 82.1 L 35.7 81.1 L 36.3 80.3 L 37.0 79.4 L 37.6 78.5 L 38.3 77.7 L 39.0 76.9 L 39.7 76.1 L 40.3 75.3 L 41.0 74.5 L 41.7 73.8 L 42.4 73.1 L 43.1 72.4 L 43.8 71.7 L 44.5 71.0 L 45.2 70.4 L 45.9 69.8 L 46.7 69.2 L 47.4 68.6 L 48.1 68.0 L 48.9 67.5 L 49.6 67.0 L 50.3 66.5 L 51.1 66.0 L 51.8 65.5 L 52.6 65.1 L 53.4 64.6 L 54.3 64.2 L 55.1 63.8 L 56.1 63.4 L 57.0 63.0 L 58.1 62.6 L 59.1 62.2 L 60.2 61.8 L 61.3 61.4 L 62.5 61.1 L 63.8 60.7 L 65.0 60.4 L 66.3 60.0 L 67.7 59.7 L 69.1 59.4 L 70.5 59.1 L 72.0 58.8 L 73.5 58.5 L 75.1 58.2 L 76.7 57.9 L 78.4 57.6 L 80.1 57.3 L 81.8 57.1 L 83.6 56.8 L 85.4 56.6 L 87.2 56.3 L 89.2 56.1 L 91.1 55.9 L 93.1 55.7 L 95.1 55.5 L 97.2 55.3 L 99.3 55.1 L 101.4 54.9 L 103.5 54.8 L 105.5 54.6 L 107.6 54.5 L 109.6 54.4 L 111.5 54.3 L 113.5 54.2 L 115.4 54.2 L 117.4 54.1 L 119.2 54.1 L 121.1 54.1 L 122.9 54.1 L 124.8 54.1 L 126.6 54.2 L 128.3 54.3 L 130.1 54.3 L 131.8 54.4 L 133.5 54.5 L 135.2 54.7 L 136.8 54.8 L 138.5 55.0 L 140.1 55.2 L 141.7 55.4 L 143.2 55.6 L 144.8 55.8 L 146.3 56.0 L 147.8 56.3 L 149.3 56.6 L 150.7 56.9 L 152.2 57.2 L 153.6 57.5 L 154.9 57.9 L 156.2 58.2 L 157.5 58.5 L 158.7 58.8 L 159.7 59.1 L 160.8 59.4 L 161.7 59.6 L 162.6 59.9 L 163.4 60.1 L 164.1 60.3 L 164.8 60.5 L 165.4 60.6 L 165.9 60.8 L 166.4 60.9 L 166.8 61.1 L 167.1 61.2 L 167.3 61.2 L 167.5 61.3 L 167.6 61.4 L 167.6 61.4 L 167.5 61.4 L 167.4 61.5 L 167.2 61.4 L 167.0 61.4 L 166.6 61.4 L 166.2 61.3 L 165.7 61.3 L 165.2 61.2 L 164.6 61.1 L 163.9 60.9 L 163.1 60.8 L 162.3 60.7 L 161.4 60.5 L 160.5 60.3 L 159.6 60.2 L 158.7 60.1 L 157.7 59.9 L 156.8 59.8 L 155.9 59.8 L 155.0 59.7 L 154.1 59.6 L 153.2 59.6 L 152.2 59.5 L 151.3 59.5 L 150.4 59.5 L 149.5 59.5 L 148.6 59.5 L 147.6 59.6 L 146.7 59.6 L 145.8 59.7 L 144.8 59.8 L 143.9 59.8 L 143.0 60.0 L 142.0 60.1 L 141.1 60.2 L 140.2 60.3 L 139.2 60.5 L 138.3 60.7 L 137.4 60.8 L 136.4 61.0 L 135.5 61.2 L 134.5 61.5 L 133.6 61.7 L 132.6 62.0 L 131.7 62.2 L 130.8 62.5 L 129.8 62.8 L 129.0 63.1 L 128.1 63.4 L 127.2 63.8 L 126.4 64.1 L 125.6 64.5 L 124.8 64.8 L 124.0 65.2 L 123.3 65.6 L 122.5 66.1 L 121.8 66.5 L 121.1 66.9 L 120.4 67.4 L 119.8 67.9 L 119.1 68.4 L 118.5 68.9 L 117.9 69.4 L 117.4 69.9 L 116.8 70.5 L 116.3 71.0 L 115.7 71.6 L 115.2 72.2 L 114.7 72.8 L 114.3 73.4 L 113.8 74.0 L 113.4 74.7 L 113.0 75.3 L 112.6 76.0 L 112.3 76.7 L 111.9 77.4 L 111.6 78.1 L 111.3 78.9 L 111.0 79.6 L 110.7 80.3 L 110.4 81.0 L 110.2 81.8 L 109.9 82.5 L 109.7 83.3 L 109.5 84.1 L 109.3 84.8 L 109.1 85.6 L 109.0 86.4 L 108.8 87.1 L 108.7 87.9 L 108.5 88.7 L 108.4 89.5 L 108.3 90.3 L 108.3 91.1 L 108.2 91.9 L 108.1 92.7 L 108.1 93.6 L 108.1 94.4 L 108.1 95.2 L 108.1 96.1 L 108.1 96.9 L 108.1 97.8 L 108.2 98.6 L 108.2 99.5 L 108.3 100.3 L 108.4 101.2 L 108.5 102.1 L 108.6 103.0 L 108.8 103.8 L 108.9 104.7 L 109.1 105.6 L 109.3 106.5 L 109.5 107.3 L 109.7 108.2 L 110.0 109.0 L 110.2 109.9 L 110.5 110.7 L 110.8 111.5 L 111.1 112.3 L 111.4 113.1 L 111.7 114.0 L 112.1 114.8 L 112.5 115.5 L 112.9 116.3 L 113.3 117.1 L 113.7 117.9 L 114.1 118.7 L 114.6 119.4 L 115.1 120.2 L 115.5 120.9 L 116.1 121.7 L 116.6 122.4 L 117.1 123.1 L 117.7 123.8 L 118.2 124.6 L 118.8 125.3 L 119.4 126.0 L 120.1 126.7 L 120.7 127.3 L 121.4 128.0 L 122.0 128.7 L 122.7 129.4 L 123.5 130.0 L 124.2 130.6 L 125.0 131.3 L 125.7 131.9 L 126.5 132.4 L 127.4 133.0 L 128.2 133.6 L 129.1 134.1 L 130.0 134.6 L 130.9 135.2 L 131.8 135.7 L 132.8 136.1 L 133.7 136.6 L 134.7 137.1 L 135.7 137.5 L 136.8 137.9 L 137.8 138.4 L 138.9 138.8 L 140.0 139.1 L 141.1 139.5 L 142.3 139.9 L 143.5 140.2 L 144.6 140.5 L 145.9 140.9 L 147.1 141.1 L 148.3 141.4 L 149.6 141.7 L 150.9 142.0 L 152.2 142.2 L 153.6 142.4 L 154.9 142.6 L 156.2 142.8 L 157.5 143.0 L 158.8 143.2 L 159.9 143.4 L 161.1 143.6 L 162.2 143.8 L 163.3 143.9 L 164.3 144.1 L 165.3 144.2 L 166.2 144.4 L 167.1 144.5 L 167.9 144.6 L 168.7 144.8 L 169.5 144.9 L 170.2 145.0 L 170.9 145.1 L 171.5 145.2 L 172.1 145.3 L 172.7 145.4 L 173.2 145.5 L 173.7 145.5 L 174.1 145.6 L 174.5 145.7 L 174.8 145.7 L 175.1 145.8 L 175.4 145.8 L 175.6 145.8 L 175.7 145.9 L 175.9 145.9 L 176.0 145.9 L 176.0 145.9" fill="none" stroke="black" stroke-width="3" stroke-linecap="round" stroke-linejoin="round"/></svg>